<?xml version="1.0" encoding="UTF-8" standalone="no"?>
<!DOCTYPE svg PUBLIC "-//W3C//DTD SVG 1.1//EN" "http://www.w3.org/Graphics/SVG/1.1/DTD/svg11.dtd">
<svg width="100%" height="100%" viewBox="0 0 69 106" version="1.1" xmlns="http://www.w3.org/2000/svg" xmlns:xlink="http://www.w3.org/1999/xlink" xml:space="preserve" xmlns:serif="http://www.serif.com/" style="fill-rule:evenodd;clip-rule:evenodd;">
    <path d="M66.554,102.56C66.554,103.742 65.595,104.701 64.413,104.701L4.247,104.701C3.064,104.701 2.106,103.742 2.106,102.56L2.106,89.437C2.106,88.254 3.064,87.296 4.247,87.296L64.413,87.296C65.595,87.296 66.554,88.254 66.554,89.437" style="fill:white;fill-rule:nonzero;"/>
    <path d="M66.554,102.56C66.554,103.742 65.595,104.701 64.413,104.701L4.247,104.701C3.064,104.701 2.106,103.742 2.106,102.56L2.106,89.437C2.106,88.254 3.064,87.296 4.247,87.296L64.413,87.296C65.595,87.296 66.554,88.254 66.554,89.437L66.554,102.56Z" style="fill:none;fill-rule:nonzero;stroke:black;stroke-width:0.54px;"/>
    <path d="M4.629,96.832L5.716,96.832L5.716,99.438L7.232,96.832L8.329,96.832L6.741,99.438L8.455,102.212L7.232,102.212L5.716,99.438L5.716,102.212L4.629,102.212" style="fill-rule:nonzero;"/>
    <path d="M10.154,101.592C10.6,101.592 10.909,101.528 11.08,101.4C11.25,101.273 11.336,101.041 11.336,100.707C11.336,100.363 11.247,100.123 11.069,99.986C10.895,99.846 10.59,99.777 10.154,99.777L10.154,101.592ZM10.154,99.2C10.576,99.2 10.87,99.135 11.034,99.004C11.198,98.867 11.28,98.627 11.28,98.283C11.28,97.702 10.966,97.412 10.337,97.412L10.206,97.412C10.178,97.412 10.161,97.413 10.154,97.416L10.154,99.2ZM9.134,96.832L10.606,96.832C11.758,96.832 12.334,97.31 12.334,98.264C12.334,98.629 12.259,98.9 12.109,99.076C11.959,99.253 11.694,99.386 11.315,99.477C11.75,99.593 12.048,99.742 12.208,99.923C12.374,100.102 12.456,100.371 12.456,100.731C12.456,101.719 11.823,102.212 10.555,102.212L9.134,102.212" style="fill-rule:nonzero;"/>
    <path d="M16.231,96.945L16.231,97.654C15.9,97.496 15.602,97.417 15.337,97.417C15.052,97.417 14.818,97.485 14.637,97.619C14.456,97.747 14.365,97.917 14.365,98.131C14.365,98.319 14.43,98.48 14.558,98.615C14.625,98.687 14.734,98.78 14.885,98.894C15.037,99.008 15.232,99.145 15.473,99.305C15.915,99.604 16.217,99.863 16.377,100.081C16.537,100.293 16.617,100.551 16.617,100.858C16.617,101.273 16.442,101.616 16.09,101.885C15.739,102.148 15.288,102.279 14.737,102.279C14.274,102.279 13.878,102.194 13.551,102.024L13.551,101.305C13.938,101.493 14.289,101.587 14.607,101.587C14.903,101.587 15.135,101.522 15.302,101.391C15.469,101.259 15.553,101.081 15.553,100.856C15.553,100.661 15.488,100.486 15.359,100.33C15.293,100.256 15.201,100.17 15.082,100.074C14.964,99.977 14.816,99.87 14.638,99.752C14.363,99.57 14.135,99.41 13.953,99.271C13.772,99.132 13.638,99.01 13.551,98.905C13.384,98.701 13.3,98.443 13.3,98.132C13.3,97.712 13.464,97.378 13.791,97.132C14.121,96.884 14.565,96.759 15.123,96.759C15.51,96.759 15.879,96.821 16.231,96.945" style="fill-rule:nonzero;"/>
    <path d="M18.554,101.592C19,101.592 19.309,101.528 19.48,101.4C19.65,101.273 19.736,101.041 19.736,100.707C19.736,100.363 19.647,100.123 19.469,99.986C19.295,99.846 18.99,99.777 18.554,99.777L18.554,101.592ZM18.554,99.2C18.976,99.2 19.27,99.135 19.434,99.004C19.598,98.867 19.68,98.627 19.68,98.283C19.68,97.702 19.366,97.412 18.737,97.412L18.606,97.412C18.578,97.412 18.561,97.413 18.554,97.416L18.554,99.2ZM17.534,96.832L19.006,96.832C20.158,96.832 20.734,97.31 20.734,98.264C20.734,98.629 20.659,98.9 20.509,99.076C20.359,99.253 20.094,99.386 19.715,99.477C20.15,99.593 20.448,99.742 20.608,99.923C20.774,100.102 20.856,100.371 20.856,100.731C20.856,101.719 20.223,102.212 18.955,102.212L17.534,102.212" style="fill-rule:nonzero;"/>
    <path d="M28.588,96.832L31.494,96.832L31.494,97.445L29.675,97.445L29.675,99.146L31.316,99.146L31.316,99.759L29.675,99.759L29.675,102.212L28.588,102.212" style="fill-rule:nonzero;"/>
    <path d="M33.417,99.216C33.838,99.216 34.136,99.151 34.31,99.021C34.484,98.891 34.571,98.671 34.571,98.362C34.571,98.195 34.553,98.052 34.516,97.934C34.48,97.815 34.422,97.719 34.344,97.644C34.266,97.57 34.164,97.516 34.041,97.481C33.917,97.446 33.77,97.428 33.6,97.428L33.417,97.428L33.417,99.216ZM32.33,96.832L33.761,96.832C34.353,96.832 34.793,96.926 35.082,97.114C35.448,97.358 35.63,97.731 35.63,98.233C35.63,98.618 35.534,98.928 35.341,99.161C35.147,99.395 34.871,99.539 34.513,99.595L35.996,102.212L34.894,102.212L33.417,99.578L33.417,102.212L32.33,102.212" style="fill-rule:nonzero;"/>
    <path d="M37.861,101.592C38.307,101.592 38.616,101.528 38.787,101.4C38.957,101.273 39.043,101.041 39.043,100.707C39.043,100.363 38.954,100.123 38.776,99.986C38.602,99.846 38.297,99.777 37.861,99.777L37.861,101.592ZM37.861,99.2C38.283,99.2 38.577,99.135 38.741,99.004C38.905,98.867 38.987,98.627 38.987,98.283C38.987,97.702 38.673,97.412 38.044,97.412L37.913,97.412C37.885,97.412 37.868,97.413 37.861,97.416L37.861,99.2ZM36.841,96.832L38.313,96.832C39.465,96.832 40.041,97.31 40.041,98.264C40.041,98.629 39.966,98.9 39.816,99.076C39.666,99.253 39.401,99.386 39.022,99.477C39.457,99.593 39.755,99.742 39.915,99.923C40.081,100.102 40.163,100.371 40.163,100.731C40.163,101.719 39.53,102.212 38.262,102.212L36.841,102.212" style="fill-rule:nonzero;"/>
    <path d="M41.246,96.832L44.136,96.832L44.136,97.445L42.333,97.445L42.333,99.151L43.933,99.151L43.933,99.765L42.333,99.765L42.333,101.599L44.136,101.599L44.136,102.212L41.246,102.212" style="fill-rule:nonzero;"/>
    <path d="M51.783,96.832L52.87,96.832L52.87,99.438L54.386,96.832L55.483,96.832L53.895,99.438L55.609,102.212L54.386,102.212L52.87,99.438L52.87,102.212L51.783,102.212" style="fill-rule:nonzero;"/>
    <path d="M59.063,96.945L59.063,97.654C58.732,97.496 58.434,97.417 58.169,97.417C57.884,97.417 57.65,97.485 57.469,97.619C57.288,97.747 57.197,97.917 57.197,98.131C57.197,98.319 57.262,98.48 57.39,98.615C57.457,98.687 57.566,98.78 57.717,98.894C57.869,99.008 58.064,99.145 58.305,99.305C58.747,99.604 59.049,99.863 59.209,100.081C59.369,100.293 59.449,100.551 59.449,100.858C59.449,101.273 59.274,101.616 58.922,101.885C58.571,102.148 58.12,102.279 57.569,102.279C57.106,102.279 56.71,102.194 56.383,102.024L56.383,101.305C56.77,101.493 57.121,101.587 57.439,101.587C57.735,101.587 57.967,101.522 58.134,101.391C58.301,101.259 58.385,101.081 58.385,100.856C58.385,100.661 58.32,100.486 58.191,100.33C58.125,100.256 58.033,100.17 57.914,100.074C57.796,99.977 57.648,99.87 57.47,99.752C57.195,99.57 56.967,99.41 56.785,99.271C56.604,99.132 56.47,99.01 56.383,98.905C56.216,98.701 56.132,98.443 56.132,98.132C56.132,97.712 56.296,97.378 56.623,97.132C56.953,96.884 57.397,96.759 57.955,96.759C58.342,96.759 58.711,96.821 59.063,96.945" style="fill-rule:nonzero;"/>
    <path d="M61.385,101.592C61.831,101.592 62.14,101.528 62.311,101.4C62.481,101.273 62.567,101.041 62.567,100.707C62.567,100.363 62.478,100.123 62.3,99.986C62.126,99.846 61.821,99.777 61.385,99.777L61.385,101.592ZM61.385,99.2C61.807,99.2 62.101,99.135 62.265,99.004C62.429,98.867 62.511,98.627 62.511,98.283C62.511,97.702 62.197,97.412 61.568,97.412L61.437,97.412C61.409,97.412 61.392,97.413 61.385,97.416L61.385,99.2ZM60.365,96.832L61.837,96.832C62.989,96.832 63.565,97.31 63.565,98.264C63.565,98.629 63.49,98.9 63.34,99.076C63.19,99.253 62.925,99.386 62.546,99.477C62.981,99.593 63.279,99.742 63.439,99.923C63.605,100.102 63.687,100.371 63.687,100.731C63.687,101.719 63.054,102.212 61.786,102.212L60.365,102.212" style="fill-rule:nonzero;"/>
    <rect x="23.351" y="98.382" width="2.529" height="2.528"/>
    <rect x="46.364" y="98.382" width="2.529" height="2.528"/>
    <path d="M68.678,61.397L34.339,95.736L0,61.397L34.339,27.058" style="fill-rule:nonzero;"/>
    <path d="M66.308,61.397L34.338,93.366L2.369,61.397L34.338,29.428" style="fill:white;fill-rule:nonzero;"/>
    <path d="M63.112,61.397L34.339,90.169L5.567,61.397L34.339,32.625" style="fill-rule:nonzero;"/>
    <path d="M58.4,57.959L61.837,61.397L58.4,64.834L54.963,61.397" style="fill-rule:nonzero;"/>
    <path d="M54.963,54.522L58.4,57.959L54.963,61.397L51.525,57.96" style="fill:white;fill-rule:nonzero;"/>
    <path d="M51.526,51.085L54.963,54.522L51.525,57.959L48.089,54.523" style="fill-rule:nonzero;"/>
    <path d="M48.089,47.648L51.526,51.085L48.089,54.523L44.651,51.085" style="fill:white;fill-rule:nonzero;"/>
    <path d="M44.651,44.211L48.088,47.648L44.651,51.085L41.214,47.648" style="fill-rule:nonzero;"/>
    <path d="M41.214,40.773L44.651,44.211L41.214,47.648L37.777,44.211" style="fill:white;fill-rule:nonzero;"/>
    <path d="M37.776,37.336L41.213,40.773L37.776,44.211L34.338,40.774" style="fill-rule:nonzero;"/>
    <path d="M34.339,33.898L37.776,37.335L34.338,40.773L30.901,37.336" style="fill:white;fill-rule:nonzero;"/>
    <path d="M51.526,64.835L54.963,68.272L51.526,71.71L48.089,68.272" style="fill-rule:nonzero;"/>
    <path d="M48.089,61.397L51.526,64.834L48.089,68.271L44.651,64.834" style="fill:white;fill-rule:nonzero;"/>
    <path d="M44.651,57.96L48.088,61.397L44.651,64.834L41.214,61.397" style="fill-rule:nonzero;"/>
    <path d="M41.214,54.522L44.651,57.959L41.214,61.397L37.777,57.96" style="fill:white;fill-rule:nonzero;"/>
    <path d="M37.776,51.085L41.213,54.522L37.776,57.959L34.338,54.522" style="fill-rule:nonzero;"/>
    <path d="M34.339,47.648L37.777,51.085L34.339,54.523L30.902,51.085" style="fill:white;fill-rule:nonzero;"/>
    <path d="M30.902,44.211L34.339,47.648L30.902,51.085L27.465,47.648" style="fill-rule:nonzero;"/>
    <path d="M27.464,40.773L30.901,44.21L27.464,47.648L24.027,44.21" style="fill:white;fill-rule:nonzero;"/>
    <path d="M44.651,71.709L48.089,75.146L44.651,78.584L41.213,75.146" style="fill-rule:nonzero;"/>
    <path d="M41.214,68.272L44.651,71.709L41.213,75.147L37.776,71.71" style="fill:white;fill-rule:nonzero;"/>
    <path d="M37.776,64.835L41.213,68.272L37.776,71.71L34.338,68.273" style="fill-rule:nonzero;"/>
    <path d="M34.339,61.397L37.776,64.834L34.338,68.272L30.901,64.835" style="fill:white;fill-rule:nonzero;"/>
    <path d="M30.902,57.959L34.339,61.396L30.902,64.834L27.464,61.397" style="fill-rule:nonzero;"/>
    <path d="M27.464,54.522L30.901,57.959L27.464,61.397L24.026,57.96" style="fill:white;fill-rule:nonzero;"/>
    <path d="M24.027,51.085L27.464,54.523L24.027,57.96L20.589,54.523" style="fill-rule:nonzero;"/>
    <path d="M20.59,47.648L24.027,51.085L20.59,54.523L17.152,51.085" style="fill:white;fill-rule:nonzero;"/>
    <path d="M37.776,78.584L41.213,82.022L37.776,85.459L34.338,82.022" style="fill-rule:nonzero;"/>
    <path d="M34.339,75.147L37.776,78.584L34.338,82.022L30.901,78.584" style="fill:white;fill-rule:nonzero;"/>
    <path d="M30.902,71.709L34.339,75.146L30.902,78.583L27.465,75.146" style="fill-rule:nonzero;"/>
    <path d="M27.464,68.272L30.901,71.709L27.464,75.147L24.026,71.71" style="fill:white;fill-rule:nonzero;"/>
    <path d="M24.027,64.835L27.464,68.272L24.027,71.71L20.589,68.273" style="fill-rule:nonzero;"/>
    <path d="M20.59,61.397L24.028,64.835L20.59,68.272L17.153,64.835" style="fill:white;fill-rule:nonzero;"/>
    <path d="M17.153,57.96L20.59,61.397L17.153,64.835L13.715,61.397" style="fill-rule:nonzero;"/>
    <path d="M13.715,54.523L17.152,57.96L13.715,61.398L10.277,57.96" style="fill:white;fill-rule:nonzero;"/>
    <path d="M34.339,82.021L37.777,85.458L34.339,88.896L30.902,85.459" style="fill:white;fill-rule:nonzero;"/>
    <path d="M30.902,78.584L34.339,82.021L30.902,85.459L27.464,82.022" style="fill-rule:nonzero;"/>
    <path d="M27.465,75.146L30.902,78.583L27.464,82.021L24.028,78.584" style="fill:white;fill-rule:nonzero;"/>
    <path d="M24.027,71.709L27.464,75.146L24.027,78.583L20.589,75.146" style="fill-rule:nonzero;"/>
    <path d="M20.59,68.272L24.027,71.709L20.589,75.147L17.153,71.71" style="fill:white;fill-rule:nonzero;"/>
    <path d="M17.153,64.834L20.59,68.271L17.153,71.709L13.716,68.271" style="fill-rule:nonzero;"/>
    <path d="M13.715,61.397L17.152,64.834L13.715,68.272L10.277,64.835" style="fill:white;fill-rule:nonzero;"/>
    <path d="M10.278,57.96L13.715,61.397L10.278,64.835L6.841,61.397" style="fill-rule:nonzero;"/>
    <path d="M41.214,75.146L44.651,78.583L41.214,82.021L37.776,78.583" style="fill:white;fill-rule:nonzero;"/>
    <path d="M37.776,71.709L41.213,75.146L37.776,78.583L34.339,75.146" style="fill-rule:nonzero;"/>
    <path d="M34.339,68.272L37.776,71.709L34.338,75.146L30.901,71.709" style="fill:white;fill-rule:nonzero;"/>
    <path d="M30.902,64.835L34.339,68.272L30.902,71.709L27.465,68.272" style="fill-rule:nonzero;"/>
    <path d="M27.464,61.397L30.901,64.834L27.464,68.271L24.027,64.834" style="fill:white;fill-rule:nonzero;"/>
    <path d="M24.027,57.96L27.464,61.397L24.027,64.835L20.589,61.397" style="fill-rule:nonzero;"/>
    <path d="M20.59,54.522L24.028,57.96L20.59,61.397L17.153,57.96" style="fill:white;fill-rule:nonzero;"/>
    <path d="M17.153,51.085L20.59,54.522L17.153,57.96L13.716,54.523" style="fill-rule:nonzero;"/>
    <path d="M48.089,68.272L51.526,71.709L48.089,75.147L44.651,71.709" style="fill:white;fill-rule:nonzero;"/>
    <path d="M44.651,64.835L48.089,68.272L44.651,71.709L41.214,68.272" style="fill-rule:nonzero;"/>
    <path d="M41.214,61.397L44.651,64.834L41.214,68.271L37.776,64.834" style="fill:white;fill-rule:nonzero;"/>
    <path d="M37.776,57.959L41.213,61.397L37.776,64.834L34.339,61.397" style="fill-rule:nonzero;"/>
    <path d="M34.339,54.522L37.776,57.959L34.338,61.396L30.901,57.959" style="fill:white;fill-rule:nonzero;"/>
    <path d="M30.902,51.085L34.34,54.523L30.902,57.959L27.465,54.523" style="fill-rule:nonzero;"/>
    <path d="M27.464,47.648L30.901,51.085L27.464,54.523L24.027,51.085" style="fill:white;fill-rule:nonzero;"/>
    <path d="M24.027,44.211L27.464,47.648L24.027,51.085L20.59,47.648" style="fill-rule:nonzero;"/>
    <path d="M54.963,61.397L58.4,64.834L54.963,68.272L51.525,64.835" style="fill:white;fill-rule:nonzero;"/>
    <path d="M51.526,57.959L54.963,61.397L51.526,64.834L48.089,61.397" style="fill-rule:nonzero;"/>
    <path d="M48.089,54.522L51.526,57.959L48.088,61.397L44.651,57.96" style="fill:white;fill-rule:nonzero;"/>
    <path d="M44.651,51.085L48.089,54.522L44.651,57.959L41.214,54.523" style="fill-rule:nonzero;"/>
    <path d="M41.214,47.648L44.651,51.085L41.213,54.523L37.776,51.085" style="fill:white;fill-rule:nonzero;"/>
    <path d="M37.776,44.211L41.214,47.648L37.776,51.086L34.338,47.648" style="fill-rule:nonzero;"/>
    <path d="M34.339,40.773L37.776,44.211L34.338,47.648L30.901,44.211" style="fill:white;fill-rule:nonzero;"/>
    <path d="M30.902,37.336L34.339,40.773L30.902,44.211L27.464,40.774" style="fill-rule:nonzero;"/>
    <path d="M50.941,40.791C50.784,40.626 50.564,40.523 50.319,40.523C50.168,40.523 50.029,40.565 49.906,40.633C49.688,38.474 49.714,36.417 50.113,34.793C49.811,36.92 51.645,38.238 51.645,38.642C51.645,39.056 51.231,39.376 50.992,40.523C50.973,40.616 50.958,40.703 50.941,40.791M18.255,40.523C18.009,40.523 17.789,40.626 17.633,40.791C17.616,40.702 17.601,40.616 17.581,40.523C17.343,39.376 16.929,39.056 16.929,38.642C16.929,38.238 18.763,36.92 18.461,34.793C18.86,36.417 18.885,38.474 18.668,40.633C18.545,40.565 18.405,40.523 18.255,40.523M25.606,24.822C26.675,25.079 28.037,25.324 29.531,25.39C31.307,25.468 33.774,25.531 34.223,25.542L34.223,25.554C34.223,25.554 37.025,25.486 38.985,25.399C40.479,25.333 41.842,25.088 42.91,24.831C42.872,25.004 42.873,25.204 42.927,25.434C43.058,25.995 43.077,26.995 43.873,27.59C39.419,28.428 34.575,28.322 34.294,28.314L34.287,28.314L34.28,28.314C33.997,28.322 29.114,28.429 24.645,27.58C25.439,26.984 25.458,25.985 25.59,25.425C25.644,25.194 25.644,24.994 25.606,24.822M17.71,33.084C17.277,32.445 16.715,31.791 16.179,31.133C16.184,31.138 17.028,31.965 17.71,33.084M16.179,31.132C15.192,29.921 14.294,28.694 14.447,27.516C14.627,26.122 16.853,25.958 17.733,26.175C18.466,26.356 19.896,27.019 20.748,27.43C18.897,28.527 16.179,31.131 16.179,31.132M52.395,31.133C51.859,31.791 51.297,32.445 50.863,33.084C51.546,31.965 52.389,31.138 52.395,31.133M47.826,27.43C48.677,27.019 50.108,26.356 50.841,26.175C51.721,25.958 53.947,26.122 54.127,27.516C54.279,28.694 53.382,29.921 52.395,31.132C52.395,31.131 49.677,28.527 47.826,27.43M58.876,39.777C57.441,40.136 55.999,42.89 54.895,43.221C53.79,43.553 52.724,43.201 52.724,41.765C52.724,40.329 53.903,40.337 55.094,40.144C57.137,39.813 58.903,38.556 59.29,37.12C59.676,35.684 58.897,33.732 56.674,34.723C54.711,35.599 56.469,36.988 56.469,37.595C56.469,38.203 55.854,38.353 54.202,38.219C53.525,38.165 52.528,37.017 52.879,35.152C53.155,33.681 54.928,33.716 55.812,33.716C56.695,33.716 58.573,32.128 57.579,32.128C56.585,32.128 55.37,30.802 55.37,30.802C55.37,30.802 57.17,31.507 58.407,31.134C61.334,30.25 61.911,26.795 60.165,26.531C56.829,26.027 59.308,29.167 57.248,29.167C56.309,29.167 56.341,28.799 56.341,28.475C56.341,27.697 57.511,28.246 57.616,27.013C57.665,26.449 57.72,25.882 56.974,25.135C55.715,23.877 54.848,23.884 53.084,23.986C51.682,24.068 48.06,25.673 46.929,26.188C46.794,26.2 46.657,26.194 46.521,26.158C46.355,26.115 46.192,26.027 46.038,25.873C45.947,25.782 45.933,25.623 45.958,25.442C46.029,25.297 46.072,25.137 46.082,24.97C46.115,24.881 46.15,24.795 46.184,24.715C46.791,24.384 47.006,24.412 47.373,23.335C47.956,21.628 47.324,20.636 47.324,20.636C47.324,20.636 50.142,14.867 49.987,13.742C49.874,12.918 49.033,12.834 48.745,11.141C48.651,10.59 47.96,10.729 47.365,10.753C47.404,10.634 47.425,10.507 47.425,10.376C47.425,9.679 46.834,9.114 46.106,9.114C45.53,9.114 45.041,9.468 44.861,9.96C44.571,9.879 44.276,9.806 43.977,9.741C43.981,9.701 43.983,9.662 43.983,9.621C43.983,9.01 43.488,8.515 42.877,8.515C42.347,8.515 41.904,8.889 41.796,9.388C41.502,9.354 41.212,9.326 40.928,9.302C40.937,9.25 40.943,9.197 40.943,9.142C40.943,8.595 40.474,8.152 39.895,8.152C39.316,8.152 38.847,8.595 38.847,9.142C38.847,9.159 38.849,9.176 38.85,9.192C38.444,9.183 38.087,9.18 37.799,9.18L35.968,9.18C35.968,9.18 35.095,8.42 35.602,7.912C35.898,7.617 37.56,7.172 37.053,5.194C36.871,4.484 36.235,4.079 35.614,3.847C36.16,3.458 36.515,2.837 36.515,2.136C36.515,0.957 35.516,0.001 34.283,0.001C33.051,0.001 32.052,0.957 32.052,2.136C32.052,2.83 32.4,3.445 32.936,3.835C32.304,4.064 31.648,4.471 31.463,5.194C30.955,7.172 32.618,7.617 32.914,7.912C33.421,8.42 32.547,9.18 32.547,9.18L30.767,9.18C30.479,9.18 30.123,9.183 29.716,9.192C29.717,9.176 29.719,9.159 29.719,9.142C29.719,8.595 29.25,8.152 28.671,8.152C28.092,8.152 27.623,8.595 27.623,9.142C27.623,9.197 27.629,9.25 27.638,9.302C27.355,9.326 27.064,9.354 26.77,9.388C26.663,8.889 26.22,8.515 25.689,8.515C25.078,8.515 24.583,9.01 24.583,9.621C24.582,9.662 24.585,9.701 24.589,9.741C24.29,9.806 23.995,9.879 23.705,9.96C23.525,9.468 23.037,9.114 22.46,9.114C21.732,9.114 21.141,9.679 21.141,10.376C21.141,10.507 21.162,10.634 21.201,10.753C20.606,10.729 19.915,10.59 19.821,11.141C19.533,12.834 18.693,12.918 18.579,13.742C18.424,14.867 21.242,20.636 21.242,20.636C21.242,20.636 20.61,21.628 21.193,23.335C21.547,24.376 21.76,24.385 22.322,24.683C22.36,24.769 22.398,24.863 22.434,24.961C22.444,25.128 22.487,25.287 22.559,25.433C22.583,25.614 22.569,25.772 22.478,25.863C22.211,26.131 21.916,26.198 21.629,26.181C20.482,25.659 16.885,24.067 15.49,23.986C13.726,23.884 12.858,23.877 11.6,25.135C10.853,25.882 10.909,26.449 10.957,27.013C11.062,28.246 12.233,27.697 12.233,28.475C12.233,28.799 12.265,29.167 11.326,29.167C9.266,29.167 11.744,26.027 8.408,26.531C6.662,26.795 7.239,30.25 10.167,31.134C11.404,31.507 13.204,30.802 13.204,30.802C13.204,30.802 11.989,32.128 10.995,32.128C10.001,32.128 11.879,33.716 12.762,33.716C13.646,33.716 15.419,33.681 15.695,35.152C16.045,37.017 15.049,38.165 14.372,38.219C12.72,38.353 12.104,38.203 12.104,37.595C12.104,36.988 13.863,35.599 11.899,34.723C9.676,33.732 8.897,35.684 9.284,37.12C9.67,38.556 11.437,39.813 13.48,40.144C14.671,40.337 15.849,40.329 15.849,41.765C15.849,43.201 14.783,43.553 13.679,43.221C12.574,42.89 11.133,40.136 9.697,39.777C8.304,39.428 5.914,39.804 5.914,42.345C5.914,44.885 7.682,44.995 8.952,44.995C10.222,44.995 10.861,44.057 10.394,43.221C9.753,42.075 8.289,42.897 8.289,42.897C8.289,42.897 7.963,41.712 9.559,41.848C10.483,41.926 11.368,43.463 12.279,44.374C13.19,45.285 15.413,45.824 16.573,44.664C17.337,43.9 17.778,43.278 17.774,42.099C17.911,42.192 18.077,42.246 18.255,42.246C18.329,42.246 18.4,42.233 18.469,42.215C18.325,43.178 18.139,44.145 17.922,45.09C17.121,48.571 15.682,51.323 16.642,57.44C16.929,59.268 18.032,62.904 23.984,65.315C27.19,66.614 27.981,66.336 31.163,67.291C33.405,67.964 34.172,69.235 34.28,69.432L34.28,69.459C34.28,69.459 34.282,69.454 34.287,69.445C34.291,69.454 34.294,69.459 34.294,69.459L34.294,69.432C34.401,69.235 35.168,67.964 37.411,67.291C40.592,66.336 41.384,66.614 44.59,65.315C50.542,62.904 51.644,59.268 51.932,57.44C52.892,51.323 51.453,48.571 50.652,45.09C50.435,44.145 50.249,43.178 50.105,42.215C50.173,42.233 50.245,42.246 50.319,42.246C50.497,42.246 50.662,42.192 50.8,42.099C50.796,43.278 51.236,43.9 52.001,44.664C53.16,45.824 55.384,45.285 56.295,44.374C57.206,43.463 58.091,41.926 59.015,41.848C60.611,41.712 60.285,42.897 60.285,42.897C60.285,42.897 58.821,42.075 58.18,43.221C57.713,44.057 58.352,44.995 59.622,44.995C60.892,44.995 62.66,44.885 62.66,42.345C62.66,39.804 60.27,39.428 58.876,39.777" style="fill:white;fill-rule:nonzero;"/>
    <path d="M61.787,43.666C61.584,44.037 60.898,44.536 60.282,44.589C59.596,44.648 59.026,44.547 58.76,44.282C58.496,44.017 58.564,43.333 59.06,43.247C59.556,43.162 59.785,43.856 60.573,43.495C60.983,43.307 61.267,42.952 61.12,42.247C60.973,41.542 60.336,40.418 58.353,41.512C57.448,42.011 56.221,44.644 53.807,44.748C52.542,44.802 51.417,43.346 51.356,42.52C51.271,41.358 51.504,40.08 51.946,39.638C52.775,38.809 52.387,38.589 52.387,38.589C52.387,38.589 51.053,37.145 50.786,35.883C50.519,34.621 51.414,33.418 52.408,32.424C53.402,31.43 54.997,28.923 54.9,27.543C54.815,26.34 54.375,26.005 53.614,25.628C52.25,24.953 49.741,25.755 49.741,25.755C49.741,25.755 51.651,24.737 52.829,24.652C54.007,24.566 55.204,24.464 56.144,25.404C56.641,25.901 56.76,26.203 56.76,26.823C56.76,27.319 55.998,27.06 55.742,27.75C54.962,29.857 56.707,30.048 57.41,30.048C58.113,30.048 59.035,29.493 58.922,28.124C58.799,28.005 58.723,27.846 58.723,27.669C58.723,27.305 59.042,27.009 59.436,27.009C59.743,27.009 60.118,27.055 60.218,27.441C60.218,27.441 60.391,28.192 60.15,28.865C59.883,29.609 59.451,30.354 58.454,30.566C56.94,30.889 56.342,30.603 55.46,30.332C55.012,30.194 54.736,30.468 54.736,30.899C54.736,31.33 55.839,32.417 56.35,32.417C56.597,32.417 56.375,32.791 55.893,32.877C55.379,32.967 54.568,32.779 53.713,33.121C52.056,33.784 51.393,35.22 52.056,36.822C52.588,38.108 53.724,39.509 56.214,38.792C56.706,38.65 57.375,38.126 57.375,38.126C57.745,37.639 57.212,37.342 57.015,37.145C56.818,36.948 56.331,36.225 56.569,35.913C57.99,34.043 59.111,36.581 58.595,37.473C58.284,38.012 57.701,38.718 56.753,39.137C55.947,39.494 54.485,39.724 53.428,39.852C53.016,39.999 52.525,40.27 52.387,40.743C52.139,41.599 52.157,42.832 52.829,43.504C53.029,43.704 53.941,44.191 54.817,43.89C55.816,43.548 58.248,40.828 58.248,40.828C58.248,40.828 58.726,40.161 59.838,40.161C60.676,40.161 61.189,40.468 61.619,41.012C61.884,41.347 62.505,42.349 61.787,43.666M49.906,40.632C49.688,38.473 49.714,36.417 50.113,34.793C49.81,36.919 51.645,38.237 51.645,38.641C51.645,39.055 51.231,39.375 50.992,40.522C50.973,40.615 50.957,40.702 50.941,40.79C50.784,40.626 50.564,40.522 50.319,40.522C50.168,40.522 50.029,40.564 49.906,40.632M51.503,56.509C51.162,58.643 50.485,62.316 44.831,64.607C41.785,65.841 40.58,65.934 37.558,66.84C35.334,67.508 34.359,68.88 34.287,68.986C34.214,68.88 33.239,67.508 31.015,66.84C27.993,65.934 26.788,65.841 23.742,64.607C18.088,62.316 17.412,58.643 17.071,56.509C16.385,52.214 17.839,48.391 18.6,44.777C19.326,41.329 19.749,37.59 19.112,34.995C18.674,33.209 16.944,31.517 16.944,31.517C16.944,31.517 18.053,30.454 19.312,29.428C21.659,29.965 21.841,30.09 25.946,30.65C28.848,31.045 34.138,30.964 34.287,30.962C34.436,30.964 39.725,31.045 42.627,30.65C46.733,30.09 46.914,29.965 49.261,29.428C50.521,30.454 51.63,31.517 51.63,31.517C51.63,31.517 49.899,33.209 49.461,34.995C48.825,37.59 49.248,41.329 49.973,44.777C50.734,48.391 52.189,52.214 51.503,56.509M18.255,40.522C18.009,40.522 17.789,40.626 17.632,40.79C17.616,40.702 17.601,40.615 17.581,40.522C17.343,39.375 16.929,39.055 16.929,38.641C16.929,38.237 18.763,36.919 18.461,34.793C18.859,36.417 18.885,38.473 18.668,40.632C18.545,40.564 18.405,40.522 18.255,40.522M17.217,42.52C17.156,43.346 16.031,44.802 14.767,44.748C12.353,44.644 11.125,42.011 10.221,41.512C8.238,40.418 7.6,41.542 7.453,42.247C7.306,42.952 7.59,43.307 8,43.495C8.789,43.856 9.018,43.162 9.514,43.247C10.01,43.333 10.078,44.017 9.813,44.282C9.548,44.547 8.978,44.648 8.291,44.589C7.676,44.536 6.989,44.037 6.786,43.666C6.068,42.349 6.689,41.347 6.954,41.012C7.385,40.468 7.898,40.161 8.736,40.161C9.847,40.161 10.326,40.828 10.326,40.828C10.326,40.828 12.758,43.548 13.756,43.89C14.632,44.191 15.545,43.704 15.744,43.504C16.417,42.832 16.435,41.599 16.186,40.743C16.049,40.27 15.558,39.999 15.146,39.852C14.088,39.724 12.627,39.494 11.821,39.137C10.873,38.718 10.289,38.012 9.978,37.473C9.463,36.581 10.584,34.043 12.004,35.913C12.242,36.225 11.755,36.948 11.559,37.145C11.362,37.342 10.829,37.639 11.198,38.126C11.198,38.126 11.868,38.65 12.36,38.792C14.849,39.509 15.985,38.108 16.518,36.822C17.18,35.22 16.518,33.784 14.861,33.121C14.006,32.779 13.195,32.967 12.681,32.877C12.198,32.791 11.976,32.417 12.224,32.417C12.734,32.417 13.838,31.33 13.838,30.899C13.838,30.468 13.562,30.194 13.113,30.332C12.232,30.603 11.633,30.889 10.119,30.566C9.122,30.354 8.69,29.609 8.424,28.865C8.183,28.192 8.355,27.441 8.355,27.441C8.456,27.055 8.83,27.009 9.137,27.009C9.531,27.009 9.85,27.305 9.85,27.669C9.85,27.846 9.774,28.005 9.652,28.124C9.538,29.493 10.461,30.048 11.163,30.048C11.866,30.048 13.611,29.857 12.831,27.75C12.575,27.06 11.814,27.319 11.814,26.823C11.814,26.203 11.932,25.901 12.429,25.404C13.37,24.464 14.567,24.566 15.744,24.652C16.922,24.737 18.833,25.755 18.833,25.755C18.833,25.755 16.324,24.953 14.96,25.628C14.199,26.005 13.758,26.34 13.673,27.543C13.576,28.923 15.171,31.43 16.165,32.424C17.16,33.418 18.055,34.621 17.788,35.883C17.521,37.145 16.186,38.589 16.186,38.589C16.186,38.589 15.799,38.809 16.628,39.638C17.07,40.08 17.302,41.358 17.217,42.52M17.71,33.084C17.277,32.445 16.715,31.791 16.179,31.132C16.184,31.137 17.027,31.964 17.71,33.084M16.178,31.132C15.192,29.921 14.294,28.694 14.447,27.516C14.627,26.121 16.853,25.957 17.733,26.174C18.466,26.355 19.896,27.019 20.748,27.43C18.897,28.526 16.179,31.131 16.178,31.132M22.606,27.567C27.344,29.013 34.137,28.844 34.287,28.84C34.436,28.844 41.229,29.013 45.967,27.567C46.271,27.474 46.799,27.697 47.413,28.075C46.829,28.396 45.256,29.135 42.672,29.445C39.377,29.84 34.436,29.89 34.287,29.891C34.138,29.89 29.196,29.84 25.902,29.445C23.317,29.135 21.744,28.396 21.16,28.075C21.775,27.697 22.303,27.474 22.606,27.567M52.395,31.132C51.858,31.791 51.297,32.445 50.863,33.084C51.546,31.964 52.389,31.137 52.395,31.132M47.826,27.43C48.677,27.019 50.107,26.355 50.841,26.174C51.721,25.957 53.947,26.121 54.127,27.516C54.279,28.694 53.381,29.921 52.395,31.132C52.395,31.131 49.677,28.526 47.826,27.43M58.877,39.776C57.44,40.135 55.999,42.889 54.894,43.221C53.79,43.552 52.724,43.2 52.724,41.764C52.724,40.328 53.903,40.337 55.093,40.143C57.137,39.812 58.903,38.556 59.29,37.12C59.676,35.684 58.897,33.732 56.674,34.723C54.711,35.598 56.469,36.987 56.469,37.595C56.469,38.202 55.854,38.353 54.202,38.219C53.525,38.164 52.528,37.017 52.878,35.151C53.155,33.681 54.928,33.715 55.811,33.715C56.695,33.715 58.573,32.127 57.579,32.127C56.585,32.127 55.37,30.802 55.37,30.802C55.37,30.802 57.17,31.507 58.407,31.133C61.334,30.249 61.911,26.795 60.165,26.531C56.829,26.026 59.308,29.167 57.247,29.167C56.308,29.167 56.341,28.798 56.341,28.474C56.341,27.696 57.511,28.245 57.616,27.012C57.664,26.448 57.72,25.881 56.974,25.135C55.715,23.876 54.848,23.883 53.084,23.986C51.414,24.083 46.586,26.346 46.586,26.346L46.835,26.983C46.679,26.947 46.543,26.941 46.435,26.973C41.516,28.475 34.631,28.322 34.294,28.314L34.294,28.313C34.294,28.313 34.291,28.314 34.287,28.314C34.282,28.314 34.28,28.313 34.28,28.313L34.28,28.314C33.942,28.322 27.057,28.475 22.139,26.973C22.031,26.941 21.895,26.947 21.739,26.983L21.988,26.346C21.988,26.346 17.16,24.083 15.49,23.986C13.726,23.883 12.858,23.876 11.599,25.135C10.853,25.881 10.909,26.448 10.957,27.012C11.062,28.245 12.233,27.696 12.233,28.474C12.233,28.798 12.265,29.167 11.326,29.167C9.266,29.167 11.744,26.026 8.408,26.531C6.662,26.795 7.239,30.249 10.166,31.133C11.404,31.507 13.204,30.802 13.204,30.802C13.204,30.802 11.989,32.127 10.995,32.127C10.001,32.127 11.879,33.715 12.762,33.715C13.646,33.715 15.419,33.681 15.695,35.151C16.045,37.017 15.049,38.164 14.372,38.219C12.72,38.353 12.104,38.202 12.104,37.595C12.104,36.987 13.863,35.598 11.899,34.723C9.676,33.732 8.897,35.684 9.284,37.12C9.67,38.556 11.437,39.812 13.48,40.143C14.671,40.337 15.849,40.328 15.849,41.764C15.849,43.2 14.783,43.552 13.679,43.221C12.574,42.889 11.133,40.135 9.697,39.776C8.304,39.428 5.914,39.804 5.914,42.344C5.914,44.885 7.681,44.995 8.951,44.995C10.222,44.995 10.861,44.056 10.394,43.221C9.753,42.075 8.289,42.896 8.289,42.896C8.289,42.896 7.963,41.712 9.559,41.847C10.483,41.926 11.368,43.463 12.279,44.374C13.19,45.285 15.413,45.823 16.573,44.664C17.337,43.899 17.778,43.278 17.774,42.098C17.911,42.191 18.076,42.245 18.255,42.245C18.329,42.245 18.4,42.233 18.469,42.215C18.324,43.178 18.139,44.145 17.922,45.089C17.121,48.571 15.682,51.322 16.642,57.439C16.929,59.268 18.032,62.903 23.983,65.314C27.189,66.613 27.981,66.336 31.162,67.29C33.405,67.963 34.172,69.235 34.28,69.432L34.28,69.458C34.28,69.458 34.282,69.453 34.287,69.445C34.291,69.453 34.294,69.458 34.294,69.458L34.294,69.432C34.401,69.235 35.168,67.963 37.411,67.29C40.592,66.336 41.384,66.613 44.59,65.314C50.542,62.903 51.644,59.268 51.932,57.439C52.892,51.322 51.453,48.571 50.652,45.089C50.434,44.145 50.249,43.178 50.104,42.215C50.173,42.233 50.244,42.245 50.319,42.245C50.497,42.245 50.662,42.191 50.8,42.098C50.796,43.278 51.236,43.899 52.001,44.664C53.161,45.823 55.383,45.285 56.295,44.374C57.206,43.463 58.091,41.926 59.015,41.847C60.61,41.712 60.285,42.896 60.285,42.896C60.285,42.896 58.821,42.075 58.18,43.221C57.713,44.056 58.352,44.995 59.622,44.995C60.892,44.995 62.66,44.885 62.66,42.344C62.66,39.804 60.269,39.428 58.877,39.776" style="fill-rule:nonzero;"/>
    <path d="M14.261,46.584C14.261,47.607 13.464,48.436 12.482,48.436C11.5,48.436 10.703,47.607 10.703,46.584C10.703,45.561 11.5,44.733 12.482,44.733C13.464,44.733 14.261,45.561 14.261,46.584" style="fill:white;fill-rule:nonzero;"/>
    <path d="M14.261,46.585C14.261,45.563 13.464,44.733 12.482,44.733C11.5,44.733 10.703,45.563 10.703,46.585C10.703,47.606 11.5,48.436 12.482,48.436C13.464,48.436 14.261,47.606 14.261,46.585Z" style="fill:none;stroke:black;stroke-width:0.54px;"/>
    <path d="M58.014,46.584C58.014,47.607 57.217,48.436 56.235,48.436C55.253,48.436 54.456,47.607 54.456,46.584C54.456,45.561 55.253,44.733 56.235,44.733C57.217,44.733 58.014,45.561 58.014,46.584" style="fill:white;fill-rule:nonzero;"/>
    <path d="M58.014,46.585C58.014,45.563 57.217,44.733 56.235,44.733C55.253,44.733 54.456,45.563 54.456,46.585C54.456,47.606 55.253,48.436 56.235,48.436C57.217,48.436 58.014,47.606 58.014,46.585Z" style="fill:none;stroke:black;stroke-width:0.54px;"/>
    <path d="M45.655,27.489C44.913,27.515 44.729,27.445 44.241,26.957C43.882,26.597 43.932,26.082 43.984,25.836C43.706,25.68 43.521,25.406 43.521,25.095C43.521,24.609 43.968,24.216 44.519,24.216C45.07,24.216 45.516,24.609 45.516,25.095C45.516,25.435 45.296,25.73 44.975,25.876C44.956,26.135 45.007,26.435 45.249,26.677C45.543,26.971 46.47,26.828 46.47,26.828C46.47,26.828 46.151,27.471 45.655,27.489M39.324,22.126C36.988,21.684 34.717,21.728 34.293,21.741L34.293,21.734C34.293,21.734 31.782,21.626 29.192,22.116C27.571,22.423 25.672,23.13 24.477,23.616C24.309,23.559 24.129,23.526 23.939,23.526C23.679,23.526 23.436,23.586 23.222,23.689L22.513,21.739C22.361,21.323 22.576,20.864 22.991,20.713C23.406,20.562 23.865,20.776 24.017,21.191L24.742,23.183C24.99,23.047 25.259,22.909 25.554,22.771L25.016,20.764C24.902,20.337 25.155,19.898 25.582,19.784C26.009,19.669 26.448,19.923 26.562,20.35L27.048,22.164C27.572,21.98 28.144,21.804 28.774,21.647L28.504,20.118C28.428,19.683 28.718,19.268 29.154,19.191C29.589,19.114 30.004,19.405 30.081,19.84L30.341,21.317C30.627,21.267 30.919,21.219 31.223,21.177L31.089,19.643C31.05,19.203 31.376,18.814 31.816,18.776C32.257,18.738 32.645,19.063 32.683,19.503L32.814,21.004C33.285,20.967 33.774,20.938 34.282,20.922C34.791,20.938 35.28,20.967 35.75,21.004L35.882,19.503C35.92,19.063 36.308,18.738 36.749,18.776C37.189,18.814 37.515,19.203 37.476,19.643L37.342,21.177C37.646,21.219 37.938,21.267 38.224,21.317L38.484,19.84C38.561,19.405 38.976,19.114 39.411,19.191C39.847,19.268 40.137,19.683 40.061,20.118L39.791,21.647C40.421,21.804 40.993,21.98 41.517,22.164L42.003,20.35C42.117,19.923 42.556,19.669 42.983,19.784C43.41,19.898 43.663,20.337 43.549,20.764L43.011,22.771C43.306,22.909 43.576,23.047 43.823,23.183L44.549,21.191C44.7,20.776 45.159,20.562 45.574,20.713C45.99,20.864 46.204,21.323 46.053,21.739L45.332,23.72C45.109,23.603 44.852,23.536 44.577,23.536C44.387,23.536 44.206,23.569 44.039,23.626C42.844,23.14 40.944,22.433 39.324,22.126M24.532,25.826C24.583,26.073 24.634,26.588 24.274,26.947C23.787,27.435 23.602,27.506 22.86,27.479C22.365,27.461 22.045,26.818 22.045,26.818C22.045,26.818 22.972,26.961 23.266,26.667C23.508,26.425 23.559,26.126 23.54,25.866C23.219,25.72 22.999,25.425 22.999,25.085C22.999,24.599 23.446,24.206 23.997,24.206C24.548,24.206 24.994,24.599 24.994,25.085C24.994,25.397 24.809,25.67 24.532,25.826M22.188,19.564C21.703,19.078 21.955,18.593 21.955,18.593C21.955,18.593 22.538,18.826 23.275,18.515C24.013,18.205 24.062,17.068 24.062,17.068C24.062,17.068 24.478,17.39 24.673,17.584C24.867,17.778 25.876,17.791 26.225,17.442C26.719,16.948 26.746,17.984 26.574,18.671C26.458,19.137 25.526,19.136 24.595,19.136C23.663,19.136 23.702,19.292 23.353,19.641C23.003,19.99 22.673,20.049 22.188,19.564M25.275,16.001C25.618,16.001 25.896,16.27 25.896,16.602C25.896,16.934 25.618,17.204 25.275,17.204C24.932,17.204 24.654,16.934 24.654,16.602C24.654,16.27 24.932,16.001 25.275,16.001M23.314,17.409C23.314,17.763 23.018,18.05 22.654,18.05C22.289,18.05 21.994,17.763 21.994,17.409C21.994,17.056 22.289,16.769 22.654,16.769C23.018,16.769 23.314,17.056 23.314,17.409M22.809,15.993C22.343,15.993 22.11,15.612 22.11,15.177C22.11,14.246 22.441,13.8 23.353,12.887C24.265,11.975 25.783,11.923 25.783,11.923C25.783,11.923 25.604,13.013 25.604,13.508C25.604,13.818 26.186,15.139 24.785,15.492C24.256,15.626 24.672,16.647 23.74,16.356C23.321,16.225 23.275,15.993 22.809,15.993M21.412,14.789C20.907,15.294 19.7,14.863 19.937,13.586C20.174,12.309 23.314,10.599 25.216,10.364C27.818,10.044 30.96,9.899 30.96,9.899C30.96,9.899 27.622,10.83 26.419,11.063C25.216,11.296 23.081,12.15 22.305,12.926C21.528,13.703 22.247,13.955 21.412,14.789M20.985,17.235C20.642,17.235 20.364,16.974 20.364,16.652C20.364,16.331 20.642,16.07 20.985,16.07C21.328,16.07 21.606,16.331 21.606,16.652C21.606,16.974 21.328,17.235 20.985,17.235M29.33,12.395C28.059,13.666 26.865,13.792 26.865,12.977C26.865,12.162 27.37,11.89 28.185,11.463C29,11.036 31.737,10.726 31.737,10.726C31.737,10.726 30.601,11.124 29.33,12.395M33.173,10.403C33.173,10.403 32.649,13.528 32.358,13.819C32.066,14.11 31.775,14.246 31.077,14.44C30.378,14.634 30.611,15.022 29.98,15.022C29.35,15.022 28.961,14.518 28.961,13.8C28.961,13.082 29.683,12.737 30.456,12.111C30.968,11.697 33.173,10.403 33.173,10.403M32.913,5.855C33.054,5.067 34.181,4.222 34.181,4.222L34.265,4.137C34.265,4.137 35.674,5.236 35.674,5.94C35.674,6.644 34.237,7.94 34.237,7.94C34.237,7.94 32.772,6.644 32.913,5.855M34.266,2.025C34.608,2.025 34.885,2.287 34.885,2.611C34.885,2.934 34.608,3.197 34.266,3.197C33.923,3.197 33.646,2.934 33.646,2.611C33.646,2.287 33.923,2.025 34.266,2.025M38.109,12.111C38.882,12.737 39.604,13.082 39.604,13.8C39.604,14.518 39.215,15.022 38.585,15.022C37.954,15.022 38.187,14.634 37.488,14.44C36.79,14.246 36.498,14.11 36.207,13.819C35.916,13.528 35.392,10.403 35.392,10.403C35.392,10.403 37.597,11.697 38.109,12.111M40.38,11.463C41.195,11.89 41.7,12.162 41.7,12.977C41.7,13.792 40.506,13.666 39.235,12.395C37.964,11.124 36.828,10.726 36.828,10.726C36.828,10.726 39.565,11.036 40.38,11.463M43.349,10.364C45.251,10.599 48.391,12.309 48.628,13.586C48.865,14.863 47.658,15.294 47.153,14.789C46.318,13.955 47.037,13.703 46.26,12.926C45.484,12.15 43.349,11.296 42.146,11.063C40.943,10.83 37.605,9.899 37.605,9.899C37.605,9.899 40.747,10.044 43.349,10.364M47.58,17.235C47.237,17.235 46.959,16.974 46.959,16.652C46.959,16.331 47.237,16.07 47.58,16.07C47.923,16.07 48.201,16.331 48.201,16.652C48.201,16.974 47.923,17.235 47.58,17.235M43.29,16.001C43.633,16.001 43.911,16.27 43.911,16.602C43.911,16.934 43.633,17.204 43.29,17.204C42.947,17.204 42.669,16.934 42.669,16.602C42.669,16.27 42.947,16.001 43.29,16.001M46.571,17.409C46.571,17.763 46.276,18.05 45.911,18.05C45.547,18.05 45.251,17.763 45.251,17.409C45.251,17.056 45.547,16.769 45.911,16.769C46.276,16.769 46.571,17.056 46.571,17.409M45.756,15.993C45.29,15.993 45.244,16.225 44.825,16.356C43.893,16.647 44.309,15.626 43.78,15.492C42.379,15.139 42.961,13.818 42.961,13.508C42.961,13.013 42.782,11.923 42.782,11.923C42.782,11.923 44.3,11.975 45.212,12.887C46.124,13.8 46.455,14.246 46.455,15.177C46.455,15.612 46.221,15.993 45.756,15.993M41.098,15.566C41.098,14.299 41.632,14.062 41.632,14.062C41.632,14.062 42.415,14.415 42.486,15.032C42.676,16.694 41.098,16.18 41.098,15.566M40.748,18.166C41.113,18.166 41.408,18.453 41.408,18.807C41.408,19.16 41.113,19.447 40.748,19.447C40.384,19.447 40.089,19.16 40.089,18.807C40.089,18.453 40.384,18.166 40.748,18.166M39.545,16.691C39.16,16.691 38.847,16.396 38.847,16.031C38.847,15.667 39.16,15.371 39.545,15.371C39.931,15.371 40.244,15.667 40.244,16.031C40.244,16.396 39.931,16.691 39.545,16.691M35.198,17.545C35.198,17.545 36.479,16.419 36.984,16.419C37.488,16.419 37.644,16.109 37.644,16.109L38.168,16.109C38.168,16.109 38.168,16.478 38.575,16.885C38.983,17.293 39.914,17.06 39.914,17.06L39.856,18.205L38.924,18.205C38.498,18.205 38.497,17.778 37.915,17.778C37.333,17.778 35.703,18.05 35.703,18.05L35.198,17.545ZM36.44,14.828C36.906,14.828 36.984,14.828 37.255,15.1C37.255,15.1 37.352,15.408 37.217,15.643C36.848,16.284 36.407,15.549 36.013,15.798C35.548,16.093 34.849,17.118 34.849,17.118C34.849,17.118 34.752,15.973 35.256,15.469C35.613,15.112 35.974,14.828 36.44,14.828M34.538,12.369L34.616,11.553C34.616,11.553 35.518,13.051 35.518,13.769C35.518,14.704 35.274,14.729 34.963,14.729C34.653,14.729 34.36,14.344 34.67,13.8C34.981,13.257 34.538,12.369 34.538,12.369M34.358,18.368C34.832,18.368 35.216,18.838 35.216,19.418C35.216,19.998 34.832,20.468 34.358,20.468C33.885,20.468 33.501,19.998 33.501,19.418C33.501,18.838 33.885,18.368 34.358,18.368M33.895,13.8C34.205,14.344 33.912,14.729 33.602,14.729C33.291,14.729 33.047,14.704 33.047,13.769C33.047,13.051 33.949,11.553 33.949,11.553L34.027,12.369C34.027,12.369 33.584,13.257 33.895,13.8M32.552,15.798C32.158,15.549 31.717,16.284 31.349,15.643C31.213,15.408 31.31,15.1 31.31,15.1C31.581,14.828 31.659,14.828 32.125,14.828C32.59,14.828 32.952,15.112 33.309,15.469C33.813,15.973 33.716,17.118 33.716,17.118C33.716,17.118 33.018,16.093 32.552,15.798M29.99,16.885C30.398,16.478 30.398,16.109 30.398,16.109L30.922,16.109C30.922,16.109 31.077,16.419 31.581,16.419C32.086,16.419 33.367,17.545 33.367,17.545L32.862,18.05C32.862,18.05 31.232,17.778 30.65,17.778C30.068,17.778 30.067,18.205 29.641,18.205L28.709,18.205L28.651,17.06C28.651,17.06 29.583,17.293 29.99,16.885M28.321,16.031C28.321,15.667 28.634,15.372 29.02,15.372C29.406,15.372 29.718,15.667 29.718,16.031C29.718,16.396 29.406,16.691 29.02,16.691C28.634,16.691 28.321,16.396 28.321,16.031M26.079,15.032C26.15,14.415 26.933,14.062 26.933,14.062C26.933,14.062 27.467,14.299 27.467,15.566C27.467,16.18 25.889,16.694 26.079,15.032M27.816,18.166C28.181,18.166 28.476,18.453 28.476,18.807C28.476,19.16 28.181,19.447 27.816,19.447C27.452,19.447 27.157,19.16 27.157,18.807C27.157,18.453 27.452,18.166 27.816,18.166M46.377,19.564C45.892,20.049 45.562,19.99 45.212,19.641C44.863,19.292 44.902,19.136 43.97,19.136C43.039,19.136 42.107,19.137 41.991,18.671C41.819,17.984 41.846,16.948 42.34,17.442C42.689,17.791 43.698,17.778 43.893,17.584C44.087,17.39 44.503,17.068 44.503,17.068C44.503,17.068 44.552,18.205 45.29,18.515C46.028,18.826 46.61,18.593 46.61,18.593C46.61,18.593 46.862,19.078 46.377,19.564M46.52,26.158C46.355,26.114 46.192,26.026 46.038,25.872C45.947,25.781 45.932,25.623 45.957,25.442C46.029,25.296 46.072,25.137 46.082,24.97C46.114,24.881 46.149,24.794 46.184,24.715C46.791,24.384 47.006,24.412 47.373,23.335C47.955,21.627 47.323,20.636 47.323,20.636C47.323,20.636 50.142,14.867 49.987,13.741C49.873,12.918 49.033,12.833 48.744,11.141C48.651,10.59 47.96,10.729 47.365,10.753C47.404,10.634 47.425,10.507 47.425,10.376C47.425,9.679 46.834,9.114 46.105,9.114C45.529,9.114 45.04,9.468 44.86,9.96C44.571,9.879 44.276,9.806 43.976,9.74C43.981,9.701 43.983,9.661 43.983,9.621C43.983,9.01 43.488,8.515 42.877,8.515C42.346,8.515 41.903,8.888 41.796,9.387C41.501,9.354 41.211,9.325 40.928,9.302C40.937,9.25 40.943,9.196 40.943,9.142C40.943,8.595 40.474,8.152 39.895,8.152C39.316,8.152 38.847,8.595 38.847,9.142C38.847,9.159 38.849,9.175 38.85,9.192C38.443,9.182 38.086,9.18 37.799,9.18L35.968,9.18C35.968,9.18 35.094,8.419 35.601,7.912C35.897,7.616 37.56,7.172 37.052,5.193C36.87,4.484 36.235,4.078 35.613,3.847C36.159,3.458 36.515,2.837 36.515,2.135C36.515,0.956 35.516,0 34.283,0C33.05,0 32.051,0.956 32.051,2.135C32.051,2.829 32.399,3.445 32.936,3.835C32.303,4.064 31.648,4.471 31.462,5.193C30.955,7.172 32.617,7.616 32.913,7.912C33.42,8.419 32.547,9.18 32.547,9.18L30.766,9.18C30.479,9.18 30.122,9.182 29.716,9.192C29.717,9.175 29.718,9.159 29.718,9.142C29.718,8.595 29.249,8.152 28.67,8.152C28.092,8.152 27.622,8.595 27.622,9.142C27.622,9.196 27.628,9.25 27.637,9.302C27.354,9.325 27.064,9.354 26.769,9.387C26.662,8.888 26.219,8.515 25.688,8.515C25.077,8.515 24.582,9.01 24.582,9.621C24.582,9.661 24.585,9.701 24.589,9.74C24.29,9.806 23.994,9.879 23.705,9.96C23.525,9.468 23.036,9.114 22.46,9.114C21.731,9.114 21.14,9.679 21.14,10.376C21.14,10.507 21.161,10.634 21.2,10.753C20.605,10.729 19.914,10.59 19.821,11.141C19.532,12.833 18.692,12.918 18.579,13.741C18.423,14.867 21.242,20.636 21.242,20.636C21.242,20.636 20.61,21.627 21.192,23.335C21.547,24.376 21.76,24.385 22.322,24.683C22.359,24.769 22.398,24.862 22.433,24.96C22.444,25.127 22.487,25.287 22.558,25.432C22.583,25.613 22.569,25.772 22.478,25.863C21.463,26.878 20.055,25.021 20.196,26.561C20.278,27.468 21.86,28.066 22.821,28.066C25.449,28.066 25.393,26.259 25.589,25.424C25.644,25.194 25.644,24.994 25.606,24.821C26.674,25.078 28.037,25.323 29.531,25.389C31.306,25.468 33.774,25.531 34.222,25.542L34.222,25.554C34.222,25.554 37.025,25.486 38.985,25.399C40.479,25.333 41.841,25.088 42.909,24.831C42.872,25.004 42.872,25.203 42.926,25.434C43.122,26.268 43.066,28.076 45.695,28.076C46.656,28.076 48.238,27.477 48.32,26.571C48.439,25.265 47.445,26.402 46.52,26.158" style="fill-rule:nonzero;"/>
    <path d="M37.798,41.981C37.798,41.981 38.124,43.497 37.913,43.977C37.702,44.456 37.242,45.071 37.107,45.953C36.973,46.836 37.395,48.122 37.837,48.851C38.278,49.58 39.065,50.002 39.065,50.002C39.065,50.002 37.741,47.507 38.124,45.991C38.508,44.476 38.892,44.399 38.758,43.439C38.623,42.48 37.798,41.981 37.798,41.981" style="fill-rule:nonzero;"/>
    <path d="M41.675,61.21L40.54,61.21C40.54,61.21 40.54,60.633 40.424,60.171C40.309,59.709 39.866,59.266 39.866,59.266C39.866,59.266 36.807,59.343 36.152,59.132C35.889,59.046 35.773,58.999 35.728,58.972L35.209,59.805L29.571,59.805C29.571,59.805 28.665,59.404 28.374,59.159C27.537,58.454 30.93,55.745 30.93,55.745L38.846,55.668L38.846,56.053C38.846,56.207 37.788,56.957 37.23,57.227C36.672,57.496 37.018,57.977 37.846,57.862C38.673,57.746 38.173,57.977 38.461,58.266C38.75,58.554 39.077,58.939 39.077,58.939L40.347,58.939L40.347,58.554C40.347,58.266 40.155,58.208 39.501,58.208C38.846,58.208 39.039,57.535 39.039,57.111C39.039,56.688 39.193,56.091 39.193,56.091C39.193,56.091 39.368,56.129 40.232,56.669C42.183,57.889 42.008,58.936 41.367,59.343C41.126,59.497 40.742,59.603 40.694,59.767C40.645,59.93 41.098,59.959 41.463,60.325C41.829,60.69 41.675,61.21 41.675,61.21M27.782,51.518C27.878,50.885 28.07,49.618 28.645,49.388C29.221,49.158 29.912,49.043 29.912,49.043C29.912,49.043 29.912,48.582 30.276,47.872C30.641,47.162 31.236,46.107 32.253,45.377C33.27,44.648 35.15,43.881 35.15,43.881C35.15,43.881 33.327,45.876 32.828,46.816C32.329,47.757 32.214,49.542 32.214,49.964C32.214,50.386 33.193,50.386 33.193,50.386C33.193,50.386 33.222,47.92 33.5,47.642C33.778,47.363 34.939,47.162 35.054,46.529C35.17,45.895 34.882,45.857 35.688,44.783C36.494,43.708 37.127,43.305 36.916,42.326C36.705,41.348 36.743,42.077 36.743,42.077C36.743,42.077 36.033,43.305 35.304,43.305C34.575,43.305 33.327,43.612 32.848,43.343C32.368,43.075 31.792,42.595 31.216,42.326C30.641,42.058 29.125,41.655 29.125,41.655C29.125,41.655 29.432,42.461 28.971,42.691C28.511,42.921 27.244,42.441 27.34,42C27.436,41.559 27.283,41.559 27.762,41.559C28.242,41.559 28.645,40.446 28.645,40.446C28.645,40.446 27.379,40.887 26.918,40.618C26.458,40.35 25.92,39.494 26.189,39.218C26.247,39.158 26.348,39.071 26.468,38.973C26.489,39.037 26.514,39.102 26.544,39.165C26.813,39.742 27.331,40.069 27.7,39.897C28.07,39.724 28.152,39.117 27.883,38.541C27.807,38.376 27.709,38.233 27.601,38.115L27.916,37.989L33.096,37.989C32.979,38.13 32.905,38.309 32.905,38.507C32.905,38.644 32.942,38.77 33.001,38.882C32.88,38.987 32.754,39.1 32.656,39.198C32.387,39.467 32.406,39.736 32.752,39.736C33.097,39.736 33.453,39.582 33.453,39.582L33.453,39.273L33.458,39.271C33.535,39.296 33.616,39.314 33.702,39.314C33.906,39.314 34.091,39.233 34.232,39.105C34.384,39.257 34.626,39.499 34.901,39.774C35.361,40.235 36.033,39.774 35.822,39.774C35.611,39.774 35.361,39.064 35.016,38.719C34.836,38.538 34.64,38.521 34.494,38.544C34.495,38.532 34.498,38.52 34.498,38.507C34.498,38.309 34.424,38.13 34.307,37.989L38.317,37.989L38.317,39.563C38.317,39.563 38.873,39.371 39.295,40.12C39.717,40.868 39.852,42.441 39.602,43.247C39.353,44.053 39.103,45.224 39.103,46.202C39.103,47.181 39.449,50.194 40.696,51.249C41.943,52.305 42.346,52.823 42.346,52.823L42.346,53.015L39.833,53.053C39.833,53.053 39.948,52.957 39.948,52.17C39.948,51.384 39.535,50.971 39.535,50.971C39.535,50.971 39.468,51.384 39.218,51.94C38.969,52.497 38.614,52.852 38.614,52.852L38.24,52.727C38.24,52.727 37.856,52.439 37.971,52.132C38.086,51.825 38.01,51.71 38.01,51.71C38.01,51.71 37.655,51.528 37.472,51.978C37.29,52.429 37.184,53.111 37.184,53.111L29.605,53.13C29.605,53.13 29.873,52.305 29.259,52.132C28.645,51.959 27.686,52.151 27.782,51.518M34.515,36.632L34.978,35.941C34.978,35.941 35.268,35.502 35.645,35.502C36.021,35.502 36.667,35.514 36.667,35.514L36.962,35.994L37.736,36.004L38.134,36.569L39.201,36.55L39.201,37.279L33.884,37.26L33.865,36.723L34.515,36.632ZM39.775,38.047C39.775,38.047 40.923,37.88 41.003,38.431C41.157,39.486 39.756,39.141 39.756,39.141L39.775,38.047ZM41.34,40.991C41.34,41.592 40.265,41.451 40.265,41.451L40.131,40.434C40.131,40.434 41.34,39.839 41.34,40.991M39.904,44.653L40.101,43.661C40.101,43.661 41.176,43.555 41.176,44.057C41.176,44.802 40.842,44.89 39.904,44.653M40.811,47.7C40.783,48.155 39.756,48.064 39.756,48.064L39.698,47.104C39.698,47.104 40.875,46.677 40.811,47.7M39.698,46.318L39.793,45.358C39.793,45.358 41.233,45.051 40.926,46.145C40.754,46.759 39.698,46.318 39.698,46.318M41.385,42.576C41.311,43.273 40.201,42.958 40.201,42.958L40.236,42C40.236,42 41.488,41.603 41.385,42.576M40.116,53.955L39.828,54.725L39.02,54.725L39.097,54.225L38.481,54.225L38.057,54.918L30.918,54.937L30.272,53.944L30.279,53.944L40.116,53.955ZM42.599,60.267C42.599,59.628 43.097,59.79 43.157,59.025C43.234,58.044 42.021,56.592 40.386,55.456C39.849,55.084 41.174,53.917 41.176,53.915C42.219,53.913 42.909,53.911 43.008,53.911C43.51,53.911 43.78,52.88 43.186,52.285C42.591,51.69 41.82,50.851 41.418,48.64C41.167,47.259 41.837,44.707 42.255,42.155C42.673,39.602 41.669,39.226 41.669,39.226C41.669,39.226 41.962,39.226 42.213,38.598C42.464,37.971 41.69,37.657 41.69,37.657L41.397,37.364L40.205,37.343L40.205,36.757L39.703,36.757L39.703,35.795L38.238,35.795L38.238,35.226L37.653,35.251L37.653,34.751L37.025,34.791L37.025,34.331L36.251,34.101L35.31,34.163L35.31,34.791L34.557,34.804L34.557,35.711L34.013,35.711L34.013,36.423L33.427,36.423L33.427,37.301L26.67,37.197C26.67,37.197 25.938,37.427 25.938,37.929L25.938,38.473C25.938,38.473 25.499,39.042 25.227,39.9C24.955,40.758 26.231,41.485 26.231,41.485L26.231,42.238C26.231,42.489 26.691,42.698 26.691,42.698C26.691,42.698 27.193,43.744 28.49,43.744C29.787,43.744 29.536,42.782 29.536,42.782C29.536,42.782 30.247,43.033 30.624,43.033C31.001,43.033 31.879,43.661 32.172,43.954C32.465,44.246 31.147,44.979 30.164,45.962C29.18,46.945 29.16,47.803 29.16,47.803C29.159,47.803 28.348,48.531 27.779,49.1C26.607,50.271 26.566,51.275 26.566,51.903C26.566,52.531 27.026,52.489 27.026,52.489C27.026,52.489 26.918,52.907 26.918,53.242C26.918,53.576 26.9,53.953 26.9,53.953C26.9,53.953 27.815,53.951 29.207,53.947C29.216,53.951 30.226,54.439 30.226,54.975C30.226,55.514 28.773,56.332 28.051,57.053C27.329,57.775 26.55,58.728 26.55,59.343C26.55,59.959 26.868,59.853 27.137,60.123C27.407,60.392 27.128,60.883 27.128,60.883L26.416,60.883L26.396,62.059L43.503,62.059L43.503,60.902C43.503,60.902 42.599,60.69 42.599,60.267" style="fill-rule:nonzero;"/>
</svg>
